<svg xmlns="http://www.w3.org/2000/svg" viewBox="0 0 578.57 591.94"><defs><style>.cls-1{fill:none;}.cls-2{fill:#787878;}.cls-3{fill:#b4b4b4;}.cls-4{fill:#a0a0a0;}.cls-5{fill:#fa3c3c;}</style></defs><g id="Layer_2" data-name="Layer 2"><g id="svg2848"><path class="cls-1" d="M458.83,262q3,0,6.34,0h7.56c4.16,0,7.91,0,11.25-.1.07-3.13.11-6.85.11-11.26V235.49Q471.93,249.1,458.83,262Z"/><path class="cls-1" d="M484.09,439.66v-15.4Q469,435.57,453.25,446.19c-.08,1.7-.17,3.33-.26,4.88a82.68,82.68,0,0,1-4,21.52q18-11.52,35.2-23.92C484.11,445.89,484.09,442.9,484.09,439.66Z"/><path class="cls-2" d="M141.82,43.35a294.19,294.19,0,0,0-78,69.14,268.31,268.31,0,0,0,34.91-4.68A319.13,319.13,0,0,1,141.82,43.35Z"/><path class="cls-3" d="M242.71,27.53A267.39,267.39,0,0,0,264,1.7a294,294,0,0,0-95.56,27.23A319.21,319.21,0,0,1,242.71,27.53Z"/><path class="cls-2" d="M169.36,82.92,155.49,57.33a298.84,298.84,0,0,0-31.13,44A272.46,272.46,0,0,0,169.36,82.92Z"/><path class="cls-4" d="M186.59,73.3a270.52,270.52,0,0,0,37.28-27.49,299.69,299.69,0,0,0-51,2.18Z"/><path class="cls-3" d="M424.68,29.43A297.72,297.72,0,0,0,289,.08a290,290,0,0,1-22.72,30.68A318.76,318.76,0,0,1,393.36,82.94,424.15,424.15,0,0,0,424.68,29.43Z"/><path class="cls-2" d="M64.53,265.18A318.67,318.67,0,0,1,88.7,129.63a289.36,289.36,0,0,1-39.65,3.19A297.47,297.47,0,0,0,1.86,263.3,423.76,423.76,0,0,0,64.53,265.18Z"/><path class="cls-4" d="M268.94,141.06c10.93,0,19.38.94,26.59,3a49.26,49.26,0,0,1,26.85,18.15,420,420,0,0,0,59.47-63.33A298.84,298.84,0,0,0,250.26,48.06,288.67,288.67,0,0,1,196,90.6l32.24,59.5A52.74,52.74,0,0,1,242.42,144C249.57,142,258.24,141.06,268.94,141.06Z"/><path class="cls-2" d="M148,141.06c10.93,0,19.38.94,26.59,3,11.75,3.31,21.35,10,27.77,19.43a50.83,50.83,0,0,1,5.95,11.91,49.77,49.77,0,0,1,5.26-10.88l-34.79-64.22a289.83,289.83,0,0,1-66.84,24.85,300.19,300.19,0,0,0-12.4,31A50.25,50.25,0,0,1,121.46,144C128.61,142,137.28,141.06,148,141.06Z"/><path class="cls-3" d="M521.81,144c7.12-1.94,15.74-2.89,26.36-2.9a294,294,0,0,0-106-102.43A443.79,443.79,0,0,1,409.19,94.7a312.17,312.17,0,0,1,76.4,88.58,52.16,52.16,0,0,1,8-19.8C498.11,156.84,506.67,148.09,521.81,144Z"/><path class="cls-2" d="M57.28,333.82c0-10,1.16-18.4,3.54-25.77a69.81,69.81,0,0,1,6.29-14.11c-.41-3-.79-6.05-1.11-9.08A444.26,444.26,0,0,1,.3,282.94,294.17,294.17,0,0,0,32.83,431.37c8.71.2,17.43.18,26.15,0-1.14-12.08-1.7-26.78-1.7-44.62Z"/><path class="cls-4" d="M389.88,141.06c10.58,0,19.14,1,26.22,2.9a53.34,53.34,0,0,1,14.22,6.14,46.78,46.78,0,0,1,14,13.35,50.73,50.73,0,0,1,7,15.35,64.8,64.8,0,0,1,2.11,13.59c.28,5.58.42,12.45.42,20.47v37.8q0,6.24.1,11.26l4.92.07q13.1-12.9,25.26-26.5V224.12q-5.2-12-11.58-23.82a293.78,293.78,0,0,0-74.9-89.72Q385.16,127,371.1,142.29a123.43,123.43,0,0,1,18.47-1.23Z"/><path class="cls-2" d="M128.05,508.69c-19.44-2.66-35.14-9.85-46.65-21.37C72,477.93,65.49,465.73,62,451c-6,.15-12,.24-18,.22A294.32,294.32,0,0,0,165.41,561.51a726.54,726.54,0,0,0,90.07-21.17,317.24,317.24,0,0,1-53.15-28.88H182C159.29,511.46,141.65,510.55,128.05,508.69Z"/><path class="cls-4" d="M484.09,401.86c0-4.4,0-8.12-.11-11.25-3.13-.07-6.85-.11-11.25-.11h-7.56c-4.14,0-7.92,0-11.31.1q0,5.08-.05,11.26V417c0,11.67-.18,21.28-.56,29.21q15.79-10.6,30.84-21.93Z"/><path class="cls-2" d="M284.91,530.7Q309.63,522,334,511.46H240.22A298.31,298.31,0,0,0,284.91,530.7Z"/><path class="cls-3" d="M493.58,489c-.55-.81-1.07-1.63-1.57-2.47a320.25,320.25,0,0,1-42,62.12,294.92,294.92,0,0,0,57.92-46.07A47.05,47.05,0,0,1,493.58,489Z"/><path class="cls-2" d="M285.42,551.32a746.83,746.83,0,0,1-87.25,23.93,295.25,295.25,0,0,0,225.58-12.34A320.18,320.18,0,0,1,285.42,551.32Z"/><path class="cls-4" d="M449,472.59a57.46,57.46,0,0,1-6.52,13.32,52.32,52.32,0,0,1-22.19,18.64l16.22,29.94a299.67,299.67,0,0,0,47.9-77.56c-.1-2.51-.17-5.25-.21-8.26Q467,461.06,449,472.59Z"/><path class="cls-2" d="M317.4,539.68a300,300,0,0,0,101.75,4.26l-18.44-34a169.38,169.38,0,0,1-20.09,1.49Q349.39,527.11,317.4,539.68Z"/><path class="cls-5" d="M578,194.15c-.37-4.92-1.51-8.75-3.4-11.53s-4.85-4.73-8.88-5.86-9.83-1.7-17.39-1.7-13.42.57-17.58,1.7-7.18,3.09-9.07,5.86-3,6.61-3.21,11.53-.38,11.15-.38,18.71v37.8q0,17-.76,26.27t-4.91,13.42q-4.17,4.17-13.42,4.91t-26.27.76h-7.56q-17,0-26.27-.76t-13.42-4.91a12.67,12.67,0,0,1-1.11-1.3c-2.1-2.79-3.37-6.82-3.8-12.12q-.76-9.26-.76-26.27v-37.8q0-11.34-.38-18.71a29.93,29.93,0,0,0-1-6.43,16.56,16.56,0,0,0-2.25-5.1,12.84,12.84,0,0,0-3.9-3.67,19.54,19.54,0,0,0-5.17-2.19q-6.19-1.69-17.42-1.7h-.16q-11.34,0-17.58,1.7t-9.07,5.86c-1.89,2.78-3,6.61-3.21,11.53s-.38,11.15-.38,18.71v52.92q0,10.2-2.27,16.82a37.08,37.08,0,0,1-5.67,11,60.93,60.93,0,0,1-7.18,7.75,80.78,80.78,0,0,0-7.18,7.37,33.63,33.63,0,0,0-5.67,9.83q-2.26,5.87-2.27,15.31V417a89.2,89.2,0,0,1-17.25-1.32q-6.24-1.32-9.07-5.86c-1.89-3-3-7.56-3.21-13.61s-.38-14.23-.38-24.57V212.86q0-11.34-.57-18.71c-.38-4.92-1.51-8.75-3.4-11.53s-4.86-4.73-8.88-5.86-9.83-1.7-17.39-1.7-13.42.57-17.58,1.7-7.18,3.09-9.07,5.86-3,6.68-3.21,11.72-.38,11.34-.38,18.9V371.62q0,15.51-.57,24.57t-3.4,13.61a13.28,13.28,0,0,1-8.88,5.86Q219.79,417,208.46,417a89.9,89.9,0,0,1-17.58-1.32q-6.24-1.32-9.07-5.86c-1.89-3-3-7.56-3.21-13.61s-.38-14.23-.38-24.57V212.86q0-11.34-.57-18.71c-.38-4.92-1.51-8.75-3.4-11.53s-4.86-4.73-8.88-5.86-9.83-1.7-17.39-1.7-13.42.57-17.58,1.7-7.18,3.09-9.07,5.86-3,6.61-3.21,11.53-.38,11.15-.38,18.71v52.92a62.54,62.54,0,0,1-1.89,16.82,36.9,36.9,0,0,1-4.92,11,56.87,56.87,0,0,1-6.42,7.75,74,74,0,0,0-6.43,7.37,32.64,32.64,0,0,0-4.91,9.83c-1.27,3.91-1.89,9-1.89,15.31v52.92q0,31.38,2.46,49.33t11.71,27.21q9.26,9.27,27.22,11.72T182,477.46H355.88c4.06,0,7.95,0,11.69-.1q3.27.11,6.88.1,15.71,0,24.8-1.77c.51-.1,1-.2,1.47-.31q9.25-2.07,13.42-8.31t4.91-18.15q.76-11.91.76-31.94V401.86q0-17,.38-26.27t4.53-13.42q4.15-4.16,13.42-4.91c2.39-.2,5.22-.36,8.46-.48q7.69-.27,18.57-.28h7.56q17,0,26.27.76t13.42,4.91q4.16,4.17,4.91,13.42t.76,26.27v37.8q0,11.34.38,18.71t3.21,11.53c1.89,2.78,4.92,4.72,9.07,5.86s10,1.7,17.58,1.7,13.35-.57,17.39-1.7,7-3.08,8.88-5.86,3-6.62,3.4-11.53.57-11.15.57-18.71V212.86Q578.57,201.52,578,194.15Z"/></g></g></svg>
